<?xml version="1.0" encoding="iso-8859-1"?>
<!-- Generator: Adobe Illustrator 19.0.0, SVG Export Plug-In . SVG Version: 6.00 Build 0)  -->
<svg xmlns="http://www.w3.org/2000/svg" xmlns:xlink="http://www.w3.org/1999/xlink" version="1.1" id="Layer_1" x="0px" y="0px" viewBox="0 0 511.969 511.969" style="enable-background:new 0 0 511.969 511.969;" xml:space="preserve" width="512px" height="512px">
<g>
	<g>
		<path d="M383.93,95.106c-0.016-0.086-0.016-0.18-0.016-0.266c-0.031-0.312-0.094-0.625-0.141-0.93    c-0.016-0.008-0.016-0.023-0.016-0.023c-0.062-0.305-0.125-0.594-0.219-0.891c-0.031-0.086-0.062-0.172-0.078-0.258    c-0.078-0.227-0.156-0.445-0.234-0.664c-0.031-0.086-0.062-0.164-0.094-0.242c-0.125-0.289-0.266-0.578-0.406-0.852    c0-0.016-0.016-0.023-0.031-0.039c-0.125-0.258-0.281-0.516-0.453-0.773c-0.047-0.07-0.109-0.148-0.156-0.219    c-0.141-0.195-0.266-0.383-0.422-0.57c-0.062-0.078-0.109-0.148-0.172-0.219c-0.203-0.242-0.422-0.477-0.641-0.703l-85.338-85.33    c-0.219-0.227-0.453-0.438-0.688-0.641c-0.078-0.062-0.156-0.117-0.219-0.172c-0.188-0.148-0.375-0.289-0.578-0.422    c-0.078-0.055-0.141-0.102-0.219-0.156c-0.266-0.164-0.516-0.32-0.781-0.469c-0.016,0-0.016-0.008-0.016-0.008    c-0.281-0.156-0.578-0.281-0.875-0.406c-0.062-0.031-0.156-0.062-0.219-0.094c-0.234-0.086-0.453-0.172-0.688-0.242    c-0.078-0.023-0.156-0.055-0.25-0.078c-0.297-0.086-0.594-0.164-0.875-0.227c-0.031,0-0.031,0-0.031,0    c-0.312-0.062-0.625-0.109-0.938-0.141c-0.094-0.016-0.188-0.016-0.266-0.023c-0.234-0.023-0.484-0.039-0.734-0.039    c-0.047,0-0.094-0.008-0.156-0.008H10.664C4.773,0,0,4.773,0,10.663v490.649c0,5.875,4.773,10.656,10.664,10.656h362.657    c5.875,0,10.656-4.781,10.656-10.656V95.997c0-0.055,0-0.109,0-0.164C383.962,95.59,383.946,95.348,383.93,95.106z     M298.639,36.421l48.918,48.911h-48.918V36.421z M362.635,490.628h-341.3V21.336h255.992v74.66c0,5.89,4.766,10.663,10.656,10.663    h74.652V490.628z" fill="#f96d2f"/>
	</g>
</g>
<g>
	<g>
		<path d="M511.969,117.33c0-23.568-19.093-42.669-42.654-42.669c-23.576,0-42.684,19.101-42.684,42.669v287.99h13.248    l-13.248,46.217l42.684,28.436l42.654-28.436l-13.233-46.217h13.233V117.33z M469.315,454.333l-17.873-11.92l10.624-37.092h14.483    l10.625,37.092L469.315,454.333z M490.627,383.979h-42.654V117.33c0-11.765,9.562-21.334,21.342-21.334    c11.75,0,21.312,9.569,21.312,21.334V383.979z" fill="#f96d2f"/>
	</g>
</g>
<g>
	<g>
		<path d="M309.325,277.328H74.856c-5.891,0-10.671,4.766-10.671,10.656c0,5.889,4.781,10.654,10.671,10.654h234.469    c5.875,0,10.656-4.766,10.656-10.654C319.981,282.094,315.2,277.328,309.325,277.328z" fill="#f96d2f"/>
	</g>
</g>
<g>
	<g>
		<path d="M309.325,341.325H74.856c-5.891,0-10.671,4.766-10.671,10.656c0,5.889,4.781,10.654,10.671,10.654h234.469    c5.875,0,10.656-4.766,10.656-10.654C319.981,346.091,315.2,341.325,309.325,341.325z" fill="#f96d2f"/>
	</g>
</g>
<g>
	<g>
		<path d="M202.652,405.32H74.856c-5.891,0-10.671,4.766-10.671,10.656c0,5.889,4.781,10.654,10.671,10.654h127.797    c5.89,0,10.671-4.766,10.671-10.654C213.323,410.086,208.543,405.32,202.652,405.32z" fill="#f96d2f"/>
	</g>
</g>
<g>
	<g>
		<path d="M202.849,85.333h-53.427V73.997c0-5.891-4.773-10.663-10.663-10.663c-5.898,0-10.671,4.772-10.671,10.663v11.335H74.856    c-5.891,0-10.671,4.773-10.671,10.664c-0.001,5.889,4.78,10.663,10.671,10.663h53.231v85.331H96.089    c-5.89,0-10.664,4.772-10.664,10.663s4.773,10.671,10.664,10.671h85.331c5.891,0,10.664-4.78,10.664-10.671    s-4.773-10.663-10.664-10.663h-31.998v-85.331h53.427c5.89,0,10.663-4.773,10.663-10.663    C213.512,90.106,208.739,85.333,202.849,85.333z" fill="#f96d2f"/>
	</g>
</g>
<g>
	<g>
		<path d="M84.628,127.994H63.301c-5.89,0-10.671,4.772-10.671,10.663s4.781,10.671,10.671,10.671h21.327    c5.891,0,10.671-4.78,10.671-10.671C95.299,132.766,90.518,127.994,84.628,127.994z" fill="#f96d2f"/>
	</g>
</g>
<g>
	<g>
		<path d="M213.323,127.994h-21.334c-5.89,0-10.664,4.772-10.664,10.663s4.773,10.671,10.664,10.671h21.334    c5.891,0,10.664-4.78,10.664-10.671C223.987,132.766,219.214,127.994,213.323,127.994z" fill="#f96d2f"/>
	</g>
</g>
<g>
</g>
<g>
</g>
<g>
</g>
<g>
</g>
<g>
</g>
<g>
</g>
<g>
</g>
<g>
</g>
<g>
</g>
<g>
</g>
<g>
</g>
<g>
</g>
<g>
</g>
<g>
</g>
<g>
</g>
</svg>
